<svg width="400" height="300" viewBox="0 0 400 300" fill="none" xmlns="http://www.w3.org/2000/svg">
  <!-- Car body -->
  <rect x="50" y="150" width="300" height="80" rx="15" fill="#3B82F6"/>
  
  <!-- Car roof -->
  <path d="M100 150 L120 120 L280 120 L300 150 Z" fill="#1E40AF"/>
  
  <!-- Windows -->
  <rect x="110" y="125" width="60" height="20" rx="3" fill="#E5E7EB"/>
  <rect x="180" y="125" width="60" height="20" rx="3" fill="#E5E7EB"/>
  <rect x="250" y="125" width="40" height="20" rx="3" fill="#E5E7EB"/>
  
  <!-- Wheels -->
  <circle cx="120" cy="230" r="25" fill="#374151"/>
  <circle cx="120" cy="230" r="15" fill="#6B7280"/>
  <circle cx="280" cy="230" r="25" fill="#374151"/>
  <circle cx="280" cy="230" r="15" fill="#6B7280"/>
  
  <!-- Headlights -->
  <circle cx="340" cy="170" r="8" fill="#FEF3C7"/>
  <circle cx="340" cy="190" r="8" fill="#FEF3C7"/>
  
  <!-- Door handle -->
  <rect x="200" y="165" width="8" height="3" rx="1" fill="#1E40AF"/>
  
  <!-- Side mirror -->
  <ellipse cx="65" cy="155" rx="8" ry="5" fill="#1E40AF"/>
  
  <!-- Decorative elements -->
  <rect x="60" y="200" width="280" height="3" rx="1" fill="#1E40AF"/>
  
  <!-- Motion lines for dynamic effect -->
  <line x1="10" y1="140" x2="30" y2="140" stroke="#D1D5DB" stroke-width="2" stroke-linecap="round"/>
  <line x1="15" y1="160" x2="35" y2="160" stroke="#D1D5DB" stroke-width="2" stroke-linecap="round"/>
  <line x1="5" y1="180" x2="25" y2="180" stroke="#D1D5DB" stroke-width="2" stroke-linecap="round"/>
</svg>